<svg xmlns="http://www.w3.org/2000/svg" width="160" height="39.5" viewBox="0 0 160 39.5"><path fill="#F26B33" d="M106.7 23.8l-1 4.3c-1.6.8-3.2 1.1-4.8 1.1-1.2 0-2.2-.3-2.9-1-.7-.7-1.1-1.6-1.1-2.7 0-.8.1-1.7.3-2.6l2-8.8H97l.9-3.9h2.2l.6-2.7 6.8-4.7-1.7 7.4h2.5l-.9 3.9H105l-2 8.6c-.1.4-.2.8-.2 1 0 .6.4 1 1.2 1 .7 0 1.6-.3 2.7-.9zm43.8-13.7l-.7 3.5h3.1l-6.5 5.2L150.3 2H142l-1 4h2.6l-4.3 18.6h-4.6L139 5.8l.9-3.8h-8.3l-.9 4h2.6L129 24.6h-5l1.8-7.7c.1-.6.2-1.2.2-1.7 0-1.8-.7-3.1-2.1-4.1-1.4-1-3.4-1.5-5.9-1.5-2.7 0-5.4.7-8 2.1l2.8 2.8c1.7-.8 3.1-1.3 4.3-1.3.9 0 1.7.2 2.3.6s.9.9.9 1.6c0 .1 0 .3-.1.4l-.3 1.5c-1.6-.4-2.7-.5-3.4-.5-2.9 0-5.2.6-6.9 1.9-1.7 1.3-2.5 2.9-2.5 4.9 0 1.5.5 2.7 1.6 3.7 1 1 2.4 1.5 4 1.5 1.5 0 3.2-.6 5-1.7l-.3 1.5h28.7l.9-3.8h-2l1.4-5.9 5.2 9.6h5.4l.9-3.9h-2.3l-3.2-6 5.6-5h1.7l.6-3.6h-9.8zm-31.9 13.6c-1.4 1.1-2.7 1.6-3.9 1.6-.6 0-1.1-.2-1.5-.6-.4-.4-.6-.9-.6-1.5 0-.9.4-1.6 1.1-2.1.7-.6 1.7-.8 2.9-.8 1 0 1.9.1 2.8.4l-.8 3zm-95.5 4.6l.9-3.9h2l2.4-10.5h-2.8l.9-3.9h8.3l-.5 2.3c1.7-1.1 3-1.8 3.8-2.1s1.6-.5 2.5-.5c1.2 0 2.2.4 3 1.2.8.8 1.2 1.8 1.2 3.1 0 .5-.1 1.1-.2 1.6l-2 8.7h2.5l-.9 3.9h-8.1l2.7-11.6c.1-.4.1-.7.1-1 0-1-.4-1.6-1.3-1.6s-2.3.7-4.2 2l-1.9 8.2h2.3l-.8 4.1h-9.9zm30.5.6c-2.4 0-4.8-.7-6.2-2.1-1.5-1.4-1.7-3.3-1.7-5.5 0-3.3 1.1-6 3.3-8.3 2.2-2.3 4.8-3.4 8-3.4 2.5 0 4.4.8 5.8 2.4 1.4 1.6 2.1 3.5 2.1 5.7 0 3.1-1.1 5.8-3.2 8-2.2 2.1-4.9 3.2-8.1 3.2zm2.8-15.2c-1.6 0-2.8.8-3.7 2.5-.9 1.7-1.4 3.4-1.4 5.3 0 1 .2 1.8.7 2.4.5.6 1.1.9 1.9.9 1.5 0 2.8-.8 3.7-2.5 1-1.7 1.5-3.4 1.5-5.3 0-1-.3-1.8-.8-2.5-.4-.5-1.1-.8-1.9-.8zm13.1 14.9L67 13.9h-2.2l.9-3.9H75l-.8 3.8H72l1.6 8.6L79.2 10h3.9l2.1 12.3 4-8.6h-2.3l.9-3.8h8.7l-.9 3.9h-2l-7 14.6h-4.9l-1.9-10.5-4.9 10.5h-5.4zm-33 7.4H17.2V24L8.3 13.6h8.9V3.5h19.1L39.7 0h-26v10H0l13.7 16v13.5h22.6l3.4-3.5h-3.2z"/></svg>