<?xml version="1.0" encoding="utf-8"?>
<!-- Generator: Adobe Illustrator 18.1.1, SVG Export Plug-In . SVG Version: 6.00 Build 0)  -->
<svg version="1.1" id="Layer_1" xmlns="http://www.w3.org/2000/svg" xmlns:xlink="http://www.w3.org/1999/xlink" x="0px" y="0px"
	 viewBox="-225 377.5 160 39.5" enable-background="new -225 377.5 160 39.5" xml:space="preserve">
<path fill="#FFFFFF" d="M-118.3,401.3l-1,4.3c-1.6,0.8-3.2,1.1-4.8,1.1c-1.2,0-2.2-0.3-2.9-1c-0.7-0.7-1.1-1.6-1.1-2.7
	c0-0.8,0.1-1.7,0.3-2.6l2-8.8h-2.2l0.9-3.9h2.2l0.6-2.7l6.8-4.7l-1.7,7.4h2.5l-0.9,3.9h-2.4l-2,8.6c-0.1,0.4-0.2,0.8-0.2,1
	c0,0.6,0.4,1,1.2,1C-120.3,402.2-119.4,401.9-118.3,401.3z M-74.5,387.6l-0.7,3.5h3.1l-6.5,5.2l3.9-16.8H-83l-1,4h2.6l-4.3,18.6
	h-4.6l4.3-18.8l0.9-3.8h-8.3l-0.9,4h2.6l-4.3,18.6h-5l1.8-7.7c0.1-0.6,0.2-1.2,0.2-1.7c0-1.8-0.7-3.1-2.1-4.1s-3.4-1.5-5.9-1.5
	c-2.7,0-5.4,0.7-8,2.1l2.8,2.8c1.7-0.8,3.1-1.3,4.3-1.3c0.9,0,1.7,0.2,2.3,0.6c0.6,0.4,0.9,0.9,0.9,1.6c0,0.1,0,0.3-0.1,0.4
	l-0.3,1.5c-1.6-0.4-2.7-0.5-3.4-0.5c-2.9,0-5.2,0.6-6.9,1.9c-1.7,1.3-2.5,2.9-2.5,4.9c0,1.5,0.5,2.7,1.6,3.7c1,1,2.4,1.5,4,1.5
	c1.5,0,3.2-0.6,5-1.7l-0.3,1.5h28.7l0.9-3.8h-2l1.4-5.9l5.2,9.6h5.4l0.9-3.9h-2.3l-3.2-6l5.6-5h1.7l0.6-3.6h-9.8L-74.5,387.6z
	 M-106.4,401.2c-1.4,1.1-2.7,1.6-3.9,1.6c-0.6,0-1.1-0.2-1.5-0.6c-0.4-0.4-0.6-0.9-0.6-1.5c0-0.9,0.4-1.6,1.1-2.1
	c0.7-0.6,1.7-0.8,2.9-0.8c1,0,1.9,0.1,2.8,0.4L-106.4,401.2z M-201.9,405.8l0.9-3.9h2l2.4-10.5h-2.8l0.9-3.9h8.3l-0.5,2.3
	c1.7-1.1,3-1.8,3.8-2.1c0.8-0.3,1.6-0.5,2.5-0.5c1.2,0,2.2,0.4,3,1.2c0.8,0.8,1.2,1.8,1.2,3.1c0,0.5-0.1,1.1-0.2,1.6l-2,8.7h2.5
	l-0.9,3.9h-8.1l2.7-11.6c0.1-0.4,0.1-0.7,0.1-1c0-1-0.4-1.6-1.3-1.6c-0.9,0-2.3,0.7-4.2,2l-1.9,8.2h2.3l-0.8,4.1
	C-192,405.8-201.9,405.8-201.9,405.8z M-171.4,406.4c-2.4,0-4.8-0.7-6.2-2.1c-1.5-1.4-1.7-3.3-1.7-5.5c0-3.3,1.1-6,3.3-8.3
	c2.2-2.3,4.8-3.4,8-3.4c2.5,0,4.4,0.8,5.8,2.4c1.4,1.6,2.1,3.5,2.1,5.7c0,3.1-1.1,5.8-3.2,8C-165.5,405.3-168.2,406.4-171.4,406.4z
	 M-168.6,391.2c-1.6,0-2.8,0.8-3.7,2.5c-0.9,1.7-1.4,3.4-1.4,5.3c0,1,0.2,1.8,0.7,2.4s1.1,0.9,1.9,0.9c1.5,0,2.8-0.8,3.7-2.5
	c1-1.7,1.5-3.4,1.5-5.3c0-1-0.3-1.8-0.8-2.5C-167.1,391.5-167.8,391.2-168.6,391.2z M-155.5,406.1l-2.5-14.7h-2.2l0.9-3.9h9.3
	l-0.8,3.8h-2.2l1.6,8.6l5.6-12.4h3.9l2.1,12.3l4-8.6h-2.3l0.9-3.8h8.7l-0.9,3.9h-2l-7,14.6h-4.9l-1.9-10.5l-4.9,10.5h-5.4V406.1z
	 M-188.5,413.5h-19.3v-12l-8.9-10.4h8.9V381h19.1l3.4-3.5h-26v10H-225l13.7,16V417h22.6l3.4-3.5
	C-185.3,413.5-188.5,413.5-188.5,413.5z"/>
</svg>
