<svg xmlns="http://www.w3.org/2000/svg" viewBox="-225 377.5 45.8 39.5"><path fill="#FFF" d="M-118.3 401.3l-1 4.3c-1.6.8-3.2 1.1-4.8 1.1-1.2 0-2.2-.3-2.9-1-.7-.7-1.1-1.6-1.1-2.7 0-.8.1-1.7.3-2.6l2-8.8h-2.2l.9-3.9h2.2l.6-2.7 6.8-4.7-1.7 7.4h2.5l-.9 3.9h-2.4l-2 8.6c-.1.4-.2.8-.2 1 0 .6.4 1 1.2 1 .7 0 1.6-.3 2.7-.9zm43.8-13.7l-.7 3.5h3.1l-6.5 5.2 3.9-16.8H-83l-1 4h2.6l-4.3 18.6h-4.6l4.3-18.8.9-3.8h-8.3l-.9 4h2.6l-4.3 18.6h-5l1.8-7.7c.1-.6.2-1.2.2-1.7 0-1.8-.7-3.1-2.1-4.1s-3.4-1.5-5.9-1.5c-2.7 0-5.4.7-8 2.1l2.8 2.8c1.7-.8 3.1-1.3 4.3-1.3.9 0 1.7.2 2.3.6.6.4.9.9.9 1.6 0 .1 0 .3-.1.4l-.3 1.5c-1.6-.4-2.7-.5-3.4-.5-2.9 0-5.2.6-6.9 1.9-1.7 1.3-2.5 2.9-2.5 4.9 0 1.5.5 2.7 1.6 3.7 1 1 2.4 1.5 4 1.5 1.5 0 3.2-.6 5-1.7l-.3 1.5h28.7l.9-3.8h-2l1.4-5.9 5.2 9.6h5.4l.9-3.9h-2.3l-3.2-6 5.6-5h1.7l.6-3.6h-9.8v.1zm-31.9 13.6c-1.4 1.1-2.7 1.6-3.9 1.6-.6 0-1.1-.2-1.5-.6-.4-.4-.6-.9-.6-1.5 0-.9.4-1.6 1.1-2.1.7-.6 1.7-.8 2.9-.8 1 0 1.9.1 2.8.4l-.8 3zm-95.5 4.6l.9-3.9h2l2.4-10.5h-2.8l.9-3.9h8.3l-.5 2.3c1.7-1.1 3-1.8 3.8-2.1.8-.3 1.6-.5 2.5-.5 1.2 0 2.2.4 3 1.2.8.8 1.2 1.8 1.2 3.1 0 .5-.1 1.1-.2 1.6l-2 8.7h2.5l-.9 3.9h-8.1l2.7-11.6c.1-.4.1-.7.1-1 0-1-.4-1.6-1.3-1.6s-2.3.7-4.2 2l-1.9 8.2h2.3l-.8 4.1h-9.9zm30.5.6c-2.4 0-4.8-.7-6.2-2.1-1.5-1.4-1.7-3.3-1.7-5.5 0-3.3 1.1-6 3.3-8.3 2.2-2.3 4.8-3.4 8-3.4 2.5 0 4.4.8 5.8 2.4 1.4 1.6 2.1 3.5 2.1 5.7 0 3.1-1.1 5.8-3.2 8-2.2 2.1-4.9 3.2-8.1 3.2zm2.8-15.2c-1.6 0-2.8.8-3.7 2.5-.9 1.7-1.4 3.4-1.4 5.3 0 1 .2 1.8.7 2.4s1.1.9 1.9.9c1.5 0 2.8-.8 3.7-2.5 1-1.7 1.5-3.4 1.5-5.3 0-1-.3-1.8-.8-2.5-.4-.5-1.1-.8-1.9-.8zm13.1 14.9l-2.5-14.7h-2.2l.9-3.9h9.3l-.8 3.8h-2.2l1.6 8.6 5.6-12.4h3.9l2.1 12.3 4-8.6h-2.3l.9-3.8h8.7l-.9 3.9h-2l-7 14.6h-4.9l-1.9-10.5-4.9 10.5h-5.4v.2zm-33 7.4h-19.3v-12l-8.9-10.4h8.9V381h19.1l3.4-3.5h-26v10H-225l13.7 16V417h22.6l3.4-3.5h-3.2z"/></svg>